<svg version="1.1" id="Layer_1" xmlns="http://www.w3.org/2000/svg" xmlns:xlink="http://www.w3.org/1999/xlink" x="0px" y="0px"
	 width="100%" viewBox="0 0 496 496" enable-background="new 0 0 496 496" xml:space="preserve">
<path fill="#000000" opacity="1.000000" stroke="none" 
	d="
M283.623840,162.186768 
	C296.680695,167.123398 307.857361,174.073944 316.189484,185.035645 
	C317.984070,187.396545 316.695435,198.134766 314.372009,199.822937 
	C313.654694,200.344131 312.486664,200.449219 311.536438,200.416229 
	C273.477631,199.095032 238.378525,210.329056 204.246399,225.666260 
	C195.315491,229.679337 186.071136,233.120834 178.619125,239.692047 
	C166.539246,231.123398 167.476639,221.414658 172.905930,213.429626 
	C183.725845,197.516403 198.397812,185.961853 214.908447,176.499832 
	C227.665726,169.188828 241.151413,163.539352 255.038879,158.801285 
	C262.544220,156.240631 269.832672,158.129166 277.093689,160.031616 
	C279.181610,160.578690 281.208527,161.358719 283.623840,162.186768 
M254.208435,170.835358 
	C251.733643,172.678284 247.581268,172.952271 248.284744,177.685516 
	C249.337311,184.767685 252.146622,190.750488 258.515472,194.499359 
	C265.984924,198.896057 274.325470,196.431946 277.909912,188.956131 
	C280.561798,183.425308 280.184540,177.558716 279.270874,171.850845 
	C278.738464,168.525146 274.492523,169.405289 272.395172,167.774765 
	C265.472351,162.392883 259.766724,163.535828 254.208435,170.835358 
z"/>
<path fill="#000000" opacity="1.000000" stroke="none" 
	d="
M235.012634,258.208252 
	C230.236893,254.252747 225.680984,250.603424 221.349960,246.704315 
	C219.189682,244.759460 217.317780,244.399643 214.670731,245.746964 
	C208.440125,248.918289 202.092865,251.864624 195.750366,254.810593 
	C189.864243,257.544586 185.181122,256.490906 182.631302,252.003143 
	C179.992203,247.358261 181.542221,242.461044 187.494370,239.193878 
	C210.679291,226.467575 235.320343,217.424820 260.867859,210.737808 
	C272.329803,207.737656 284.018372,206.183060 295.767578,204.952377 
	C301.791626,204.321396 307.765411,205.127731 313.701477,205.844772 
	C318.610321,206.437759 321.526428,211.920837 319.994171,216.992233 
	C319.568329,218.401672 318.762756,219.696365 317.919220,221.496567 
	C321.578857,224.943863 325.237152,228.539108 329.063690,231.945374 
	C331.925171,234.492584 333.791168,237.390213 332.040161,241.137360 
	C330.303009,244.854843 326.988007,245.145340 323.133484,244.792252 
	C308.680573,243.468231 294.651031,246.331146 280.758850,249.859833 
	C270.267792,252.524643 259.964203,255.800339 250.031891,260.185211 
	C244.852493,262.471802 239.941849,261.378052 235.012634,258.208252 
z"/>
<path fill="#000000" opacity="1.000000" stroke="none" 
	d="
M229.209473,296.853241 
	C229.152512,299.799713 229.156616,302.281006 230.393295,304.816223 
	C226.309494,305.845184 222.359695,305.162415 218.436615,305.184326 
	C214.634293,305.205566 210.823227,305.692627 206.786743,304.909790 
	C206.233200,299.018738 207.372101,293.091217 206.289154,287.065308 
	C202.976913,290.074280 202.377411,294.822662 203.860382,305.086182 
	C195.737808,305.086182 187.657822,305.086182 179.362274,305.086182 
	C180.194138,298.754089 180.003326,292.620270 179.313873,286.305145 
	C177.747833,289.562103 176.771942,293.434326 172.101791,291.956726 
	C169.085403,291.002350 169.525085,288.435242 170.230301,285.953278 
	C166.228745,291.947540 166.808060,298.265503 168.486038,304.978882 
	C164.971634,305.742035 161.231659,305.375549 157.339752,305.095093 
	C158.135422,298.045380 158.327759,291.191925 157.254105,284.012268 
	C166.892334,283.214844 176.695328,283.130463 186.515472,283.721222 
	C189.073502,283.875122 189.285278,285.629639 189.293381,287.575104 
	C189.310699,291.737610 189.314240,295.900208 189.353424,300.062531 
	C189.367981,301.608032 189.499390,303.307983 191.475525,303.444702 
	C193.932983,303.614655 193.944809,301.606812 193.911102,299.962402 
	C193.803452,294.711182 194.610977,289.418335 192.738327,283.095581 
	C200.429840,285.979004 207.783356,279.906525 214.897171,284.771545 
	C215.876389,285.441193 216.704239,284.332611 217.580353,283.939362 
	C224.274490,280.934418 228.621048,283.540863 229.141800,290.903046 
	C229.270782,292.726562 229.192047,294.564728 229.209473,296.853241 
M216.318405,298.266663 
	C216.709610,300.096741 215.292572,302.650391 219.215134,303.849365 
	C220.024902,297.992737 219.740280,292.547180 219.367004,286.208160 
	C214.904068,289.839203 216.828003,293.886719 216.318405,298.266663 
z"/>
<path fill="#000000" opacity="1.000000" stroke="none" 
	d="
M342.299194,291.039185 
	C342.605103,295.071808 341.619598,298.739502 343.833740,302.246643 
	C346.903046,296.541504 345.547760,290.411774 345.313629,284.134216 
	C345.689911,284.033173 346.303467,283.750519 346.930023,283.718018 
	C355.315247,283.282806 355.251831,283.292236 355.340363,291.511169 
	C355.388092,295.940887 354.713837,300.429504 356.467377,305.123718 
	C350.820251,305.627930 345.417786,305.223602 340.041351,306.142944 
	C335.397308,306.937042 333.194672,303.396301 332.876617,299.050262 
	C332.621826,295.568573 332.883698,292.050079 332.654572,288.565155 
	C332.435699,285.235687 330.274231,284.370575 327.592712,286.344635 
	C323.436432,289.404388 322.716400,293.048004 325.482880,297.403351 
	C327.064240,299.893005 328.407562,302.573700 331.527313,304.771820 
	C326.520844,305.930328 322.133636,305.020294 317.390198,305.442413 
	C317.200317,302.891510 317.762817,300.184875 314.828125,298.713867 
	C312.280975,299.992157 311.711639,302.305145 312.130646,305.025116 
	C310.104675,305.434570 308.318451,305.555115 306.000977,304.835663 
	C309.581482,302.066010 313.073517,298.826538 312.493652,294.610931 
	C311.933624,290.539490 309.071411,286.922241 304.324371,283.621094 
	C310.198486,283.621094 314.720551,283.621094 319.509613,283.621094 
	C319.795685,285.741821 318.525513,288.444519 321.715424,289.721680 
	C323.986176,288.417206 323.976990,285.986023 323.942932,283.794891 
	C329.428650,283.794891 334.762329,283.342865 339.975037,283.942474 
	C343.919739,284.396210 341.689026,288.246704 342.299194,291.039185 
z"/>
<path fill="#000000" opacity="1.000000" stroke="none" 
	d="
M264.781067,288.180237 
	C263.234192,285.408783 261.845795,282.966827 260.457397,280.524872 
	C259.907928,288.614380 258.208923,296.629974 260.514221,304.869720 
	C259.345001,305.833191 257.781067,305.411407 256.263397,304.955902 
	C257.462952,294.711334 257.313293,284.551849 256.468018,274.297363 
	C265.661591,271.977173 267.886871,272.942230 272.225647,281.367157 
	C273.968536,284.751434 275.737885,288.122131 278.106476,291.417297 
	C278.226837,285.715149 279.710876,280.031281 277.374298,274.139679 
	C278.840363,273.088501 280.523193,273.741150 281.983124,273.954193 
	C280.580200,282.302063 281.675201,290.423065 281.152679,298.471741 
	C280.998596,300.845062 282.615356,304.170593 278.764435,305.188232 
	C274.999207,306.183197 272.962250,304.070435 271.424744,300.885651 
	C269.401001,296.693726 267.113586,292.629089 264.781067,288.180237 
z"/>
<path fill="#000000" opacity="1.000000" stroke="none" 
	d="
M144.881775,275.211792 
	C140.212051,273.711090 138.296997,276.394684 137.402817,279.854401 
	C135.846344,285.876343 135.796707,291.989441 137.214813,298.102051 
	C137.901657,301.062622 139.223679,303.672241 142.286362,304.269470 
	C145.529221,304.901764 147.258423,302.217865 149.016800,299.989441 
	C150.123978,298.586273 150.262344,296.512970 152.050491,295.563721 
	C155.024307,301.704437 153.785370,304.696381 147.528366,305.853699 
	C140.930695,307.074066 134.162979,307.250885 129.771011,301.208679 
	C124.959282,294.588989 125.334732,287.002380 128.746765,279.895142 
	C132.098038,272.914429 145.965714,269.780548 151.713058,274.255951 
	C153.286697,275.481323 153.515686,278.989563 152.175201,283.378479 
	C148.966858,281.353241 148.669724,276.889587 144.881775,275.211792 
z"/>
<path fill="#000000" opacity="1.000000" stroke="none" 
	d="
M305.351135,289.792175 
	C305.994781,292.900238 305.058197,294.345825 302.120148,294.213135 
	C300.962067,294.160858 299.785614,294.111176 298.641144,294.252167 
	C296.678558,294.493927 293.940369,293.403656 293.452759,296.605225 
	C293.084991,299.020020 293.786804,301.259735 295.916443,302.728210 
	C298.155823,304.272369 299.972504,302.952087 301.778137,301.685699 
	C302.806580,300.964355 303.149811,299.403442 304.697021,299.277252 
	C304.192505,303.769562 301.154358,306.085449 295.808655,306.096680 
	C289.307434,306.110321 284.531433,302.302643 283.774292,296.502258 
	C282.921783,289.971283 286.077515,285.266449 292.522766,283.459137 
	C298.633972,281.745483 302.901825,283.729279 305.351135,289.792175 
M296.654633,288.737732 
	C296.470215,287.546112 296.691986,285.384552 294.773560,286.368042 
	C292.498230,287.534485 293.222137,289.920654 293.771484,291.964294 
	C296.017883,292.270111 296.577423,291.092651 296.654633,288.737732 
z"/>
<path fill="#000000" opacity="1.000000" stroke="none" 
	d="
M249.414246,284.316956 
	C251.243942,285.440125 252.124435,286.836609 252.727081,288.406586 
	C254.220901,292.298218 253.144165,293.950562 248.992920,294.192322 
	C248.166168,294.240448 247.321625,294.120605 246.508560,294.238525 
	C244.560028,294.521149 241.833832,293.388763 241.374298,296.648071 
	C241.035355,299.052063 241.446838,301.369385 243.691498,302.801208 
	C246.177063,304.386719 248.078629,302.940613 249.865311,301.329285 
	C250.690704,300.584869 251.054901,299.284851 252.887589,299.176178 
	C252.689285,302.478851 250.787857,304.179810 248.027359,305.183807 
	C242.880722,307.055603 236.871063,305.648590 233.911484,301.931854 
	C231.092087,298.391174 230.782593,292.316040 233.218430,288.327118 
	C235.830124,284.050232 241.256226,282.032257 246.709869,283.337463 
	C247.512253,283.529480 248.284592,283.846954 249.414246,284.316956 
M241.427628,287.404785 
	C241.478516,288.975189 240.655380,290.695465 242.200134,292.087280 
	C245.298615,291.720459 244.777023,289.459290 244.400467,287.601318 
	C244.098511,286.111298 243.122482,285.131683 241.427628,287.404785 
z"/>
<path fill="#000000" opacity="1.000000" stroke="none" 
	d="
M370.708435,300.850922 
	C368.175659,299.678070 365.835022,298.829010 363.574829,297.802795 
	C359.768036,296.074371 357.933899,293.020996 358.898590,288.943756 
	C359.829712,285.008240 362.518921,282.591309 366.778961,282.709106 
	C369.396149,282.781525 372.002075,283.262573 374.693604,283.569275 
	C375.589294,285.438141 375.496460,287.348450 374.749695,289.640778 
	C371.509338,287.867859 369.351349,282.272339 364.308594,286.024994 
	C365.278320,289.065491 367.642517,289.134674 369.607666,289.807220 
	C375.361725,291.776398 377.466370,295.299194 376.187927,300.838959 
	C375.269470,304.818909 371.118317,307.066162 365.791901,306.256134 
	C363.677795,305.934662 361.626465,305.202271 359.372803,305.570038 
	C358.326874,303.110413 358.493225,300.712982 359.191193,297.747528 
	C361.341949,299.522003 362.074341,302.113525 364.206604,303.395081 
	C367.667664,305.475220 369.964508,304.735931 370.708435,300.850922 
z"/>
<path fill="#000000" opacity="1.000000" stroke="none" 
	d="
M186.401016,272.635864 
	C189.874863,274.115570 190.262054,276.649231 188.866501,279.244812 
	C187.741974,281.336273 185.446396,281.649963 183.201279,280.956238 
	C180.835983,280.225403 179.589371,278.486298 180.016525,276.086700 
	C180.608002,272.764191 183.137222,272.218140 186.401016,272.635864 
z"/>
<path fill="#000000" opacity="1.000000" stroke="none" 
	d="
M253.427429,178.155487 
	C256.449860,175.272110 259.350891,172.604523 262.498993,170.270111 
	C264.497467,168.788193 274.723907,173.211502 275.089294,175.720734 
	C275.772491,180.412460 275.314301,185.039551 272.413330,189.012665 
	C269.605438,192.858215 264.553925,193.134293 260.007782,189.761963 
	C256.240479,186.967407 254.049286,183.177353 253.427429,178.155487 
z"/>
</svg>